:FULLY-SPECIFIED
:FORCE-ALL-JOINTS-BE-3DOF
:DEGREES
204
root -2.89834 16.3096 -36.1129 3.77647 0.669283 -2.92281
lfemur -23.8811 6.71236 -8.18114
ltibia 48.6095 0 0
lfoot -23.7771 0.393452 0
ltoes -9.78691 0 0
rfemur -23.8244 -7.5383 14.6543
rtibia 50.6846 0 0
rfoot -27.6084 2.04886 0
rtoes -8.28712 0 0
lowerback 7.28291 1.95425 -1.69481
upperback -3.75366 2.53938 1.30097
thorax -8.18664 1.37409 1.96134
lowerneck -3.37659 -3.97051 -6.59614
upperneck 6.85117 -5.36198 6.08082
head 3.23214 -2.64008 2.98426
lclavicle -1.35359e-14 3.18665e-16 0
lhumerus -26.5522 -1.87446 88.7842
lradius 24.3091 0 0
lwrist -31.3953 0 0
lhand -28.2318 30.1015 0
lfingers 7.12502 0 0
lthumb -1.60979 60.0752 0
rclavicle -1.35359e-14 3.18665e-16 0
rhumerus -32.2357 1.99769 -79.9369
rradius 30.4458 0 0
rwrist 3.12065 0 0
rhand -20.0927 -26.8276 0
rfingers 7.12502 0 0
rthumb 6.25033 -56.7154 0
205
root -2.89986 16.3073 -36.1118 3.77268 0.669385 -2.92396
lfemur -23.8935 6.72092 -8.17521
ltibia 48.6475 0 0
lfoot -23.7971 0.395351 0
ltoes -9.80252 0 0
rfemur -23.837 -7.55434 14.6565
rtibia 50.7228 0 0
rfoot -27.6299 2.05822 0
rtoes -8.29141 0 0
lowerback 7.28687 1.95398 -1.69521
upperback -3.75072 2.53901 1.30229
thorax -8.18584 1.37394 1.96294
lowerneck -3.40514 -3.94665 -6.5695
upperneck 6.87743 -5.32914 6.05432
head 3.24319 -2.62368 2.97181
lclavicle -1.33096e-14 4.17318e-16 0
lhumerus -26.55 -1.88289 88.7893
lradius 24.3137 0 0
lwrist -31.3847 0 0
lhand -28.2306 30.1082 0
lfingers 7.12502 0 0
lthumb -1.60871 60.0819 0
rclavicle -1.33096e-14 4.17318e-16 0
rhumerus -32.2274 2.00138 -79.9388
rradius 30.4514 0 0
rwrist 3.12172 0 0
rhand -20.0877 -26.8249 0
rfingers 7.12502 0 0
rthumb 6.25509 -56.7126 0
206
root -2.90138 16.305 -36.1106 3.76868 0.66911 -2.9246
lfemur -23.9054 6.72898 -8.17025
ltibia 48.6848 0 0
lfoot -23.8168 0.397708 0
ltoes -9.81773 0 0
rfemur -23.8493 -7.56976 14.6577
rtibia 50.7605 0 0
rfoot -27.6509 2.06737 0
rtoes -8.29546 0 0
lowerback 7.29131 1.95374 -1.69565
upperback -3.74773 2.53866 1.30361
thorax -8.18527 1.37379 1.96455
lowerneck -3.43602 -3.91994 -6.54011
upperneck 6.9053 -5.29236 6.02499
head 3.25484 -2.60532 2.95808
lclavicle -1.30647e-14 4.96962e-16 0
lhumerus -26.5489 -1.89002 88.794
lradius 24.3179 0 0
lwrist -31.374 0 0
lhand -28.2296 30.1145 0
lfingers 7.12502 0 0
lthumb -1.6077 60.0882 0
rclavicle -1.30647e-14 4.96962e-16 0
rhumerus -32.2196 2.00376 -79.9386
rradius 30.4557 0 0
rwrist 3.12415 0 0
rhand -20.0827 -26.8213 0
rfingers 7.12502 0 0
rthumb 6.25995 -56.7088 0
207
root -2.90104 16.303 -36.1104 3.76267 0.66035 -2.92405
lfemur -23.9128 6.72901 -8.16398
ltibia 48.7141 0 0
lfoot -23.8361 0.392337 0
ltoes -9.83998 0 0
rfemur -23.8592 -7.58093 14.657
rtibia 50.7959 0 0
rfoot -27.6731 2.08254 0
rtoes -8.29258 0 0
lowerback 7.29484 1.95353 -1.69817
upperback -3.74456 2.53794 1.30446
thorax -8.18404 1.37359 1.96692
lowerneck -3.47013 -3.89302 -6.50976
upperneck 6.93657 -5.25524 5.99575
head 3.26757 -2.58673 2.94405
lclavicle -1.27736e-14 5.71506e-16 0
lhumerus -26.552 -1.8907 88.8039
lradius 24.2964 0 0
lwrist -31.38 0 0
lhand -28.2314 30.1141 0
lfingers 7.12502 0 0
lthumb -1.60946 60.0878 0
rclavicle -1.27736e-14 5.71506e-16 0
rhumerus -32.2068 1.9933 -79.9315
rradius 30.4378 0 0
rwrist 3.14194 0 0
rhand -20.0957 -26.8189 0
rfingers 7.12502 0 0
rthumb 6.24813 -56.7129 0
208
root -2.9007 16.3011 -36.1102 3.75304 0.635827 -2.92169
lfemur -23.9123 6.71426 -8.15428
ltibia 48.7288 0 0
lfoot -23.855 0.371844 0
ltoes -9.87597 0 0
rfemur -23.8648 -7.58459 14.6538
rtibia 50.8274 0 0
rfoot -27.6982 2.10938 0
rtoes -8.27673 0 0
lowerback 7.29618 1.95334 -1.70461
upperback -3.74108 2.53649 1.30442
thorax -8.18132 1.37326 1.97075
lowerneck -3.50817 -3.86842 -6.48021
upperneck 6.97276 -5.22121 5.96937
head 3.28175 -2.56957 2.93067
lclavicle -1.2412e-14 6.55153e-16 0
lhumerus -26.5621 -1.88044 88.8243
lradius 24.2267 0 0
lwrist -31.4179 0 0
lhand -28.2386 30.1012 0
lfingers 7.12502 0 0
lthumb -1.61642 60.0751 0
rclavicle -1.2412e-14 6.55153e-16 0
rhumerus -32.184 1.95971 -79.9133
rradius 30.3793 0 0
rwrist 3.18759 0 0
rhand -20.1429 -26.8196 0
rfingers 7.12502 0 0
rthumb 6.20455 -56.7327 0
209
root -2.90037 16.2991 -36.1099 3.74005 0.596771 -2.91767
lfemur -23.9043 6.68588 -8.14146
ltibia 48.7301 0 0
lfoot -23.8734 0.337438 0
ltoes -9.92463 0 0
rfemur -23.8663 -7.58133 14.6482
rtibia 50.8553 0 0
rfoot -27.7257 2.14695 0
rtoes -8.24893 0 0
lowerback 7.29553 1.95319 -1.71469
upperback -3.73732 2.53437 1.30354
thorax -8.17725 1.37282 1.97593
lowerneck -3.54992 -3.84585 -6.45126
upperneck 7.01354 -5.18988 5.94552
head 3.2973 -2.55363 2.91783
lclavicle -1.19844e-14 7.47015e-16 0
lhumerus -26.5788 -1.8601 88.8544
lradius 24.1126 0 0
lwrist -31.4851 0 0
lhand -28.2508 30.0769 0
lfingers 7.12502 0 0
lthumb -1.62817 60.0509 0
rclavicle -1.19844e-14 7.47015e-16 0
rhumerus -32.1519 1.9048 -79.8847
rradius 30.2832 0 0
rwrist 3.25893 0 0
rhand -20.2217 -26.8233 0
rfingers 7.12502 0 0
rthumb 6.13173 -56.7671 0
210
root -2.90003 16.2971 -36.1097 3.72398 0.544411 -2.9121
lfemur -23.8895 6.64502 -8.12582
ltibia 48.719 0 0
lfoot -23.8915 0.290329 0
ltoes -9.98485 0 0
rfemur -23.8641 -7.57172 14.6404
rtibia 50.88 0 0
rfoot -27.7557 2.19434 0
rtoes -8.21018 0 0
lowerback 7.29308 1.95306 -1.72808
upperback -3.73329 2.53164 1.30191
thorax -8.17194 1.37228 1.98233
lowerneck -3.59515 -3.825 -6.42275
upperneck 7.0586 -5.16083 5.92384
head 3.31413 -2.53873 2.90544
lclavicle -1.14954e-14 8.46201e-16 0
lhumerus -26.6014 -1.83052 88.8934
lradius 23.9578 0 0
lwrist -31.579 0 0
lhand -28.2675 30.042 0
lfingers 7.12502 0 0
lthumb -1.6443 60.0163 0
rclavicle -1.14954e-14 8.46201e-16 0
rhumerus -32.1114 1.83037 -79.8467
rradius 30.1528 0 0
rwrist 3.3538 0 0
rhand -20.3293 -26.8297 0
rfingers 7.12502 0 0
rthumb 6.03218 -56.8147 0
211
root -2.89969 16.2952 -36.1095 3.70509 0.479978 -2.9051
lfemur -23.8685 6.59284 -8.10766
ltibia 48.6968 0 0
lfoot -23.9093 0.231726 0
ltoes -10.0555 0 0
rfemur -23.8585 -7.55633 14.6305
rtibia 50.9017 0 0
rfoot -27.7877 2.25063 0
rtoes -8.16147 0 0
lowerback 7.28901 1.95296 -1.74448
upperback -3.72902 2.52835 1.29959
thorax -8.16552 1.37164 1.98986
lowerneck -3.64365 -3.80558 -6.3945
upperneck 7.10761 -5.13366 5.90401
head 3.33215 -2.52468 2.89338
lclavicle -1.09495e-14 9.51824e-16 0
lhumerus -26.6296 -1.79258 88.9403
lradius 23.7661 0 0
lwrist -31.6973 0 0
lhand -28.2883 29.9977 0
lfingers 7.12502 0 0
lthumb -1.66441 59.9723 0
rclavicle -1.09495e-14 9.51824e-16 0
rhumerus -32.0634 1.7382 -79.8
rradius 29.9913 0 0
rwrist 3.47003 0 0
rhand -20.463 -26.8384 0
rfingers 7.12502 0 0
rthumb 5.90843 -56.8743 0
212
root -2.89935 16.2932 -36.1093 3.68367 0.404702 -2.8968
lfemur -23.8419 6.53046 -8.08728
ltibia 48.6644 0 0
lfoot -23.9267 0.162838 0
ltoes -10.1356 0 0
rfemur -23.8498 -7.53573 14.6187
rtibia 50.9207 0 0
rfoot -27.8216 2.3149 0
rtoes -8.10383 0 0
lowerback 7.28354 1.95288 -1.76358
upperback -3.72453 2.52456 1.29667
thorax -8.15811 1.37092 1.99839
lowerneck -3.69521 -3.78729 -6.36634
upperneck 7.16026 -5.10798 5.88567
head 3.35126 -2.51129 2.88156
lclavicle -1.03514e-14 1.06299e-15 0
lhumerus -26.6626 -1.74713 88.9944
lradius 23.5415 0 0
lwrist -31.8371 0 0
lhand -28.3129 29.9449 0
lfingers 7.12502 0 0
lthumb -1.6881 59.9198 0
rclavicle -1.03514e-14 1.06299e-15 0
rhumerus -32.0085 1.63011 -79.7454
rradius 29.8018 0 0
rwrist 3.60547 0 0
rhand -20.6201 -26.8492 0
rfingers 7.12502 0 0
rthumb 5.76299 -56.9446 0
213
root -2.89901 16.2913 -36.109 3.65998 0.319812 -2.88733
lfemur -23.8103 6.45906 -8.06499
ltibia 48.6232 0 0
lfoot -23.9438 0.0848751 0
ltoes -10.224 0 0
rfemur -23.8384 -7.51051 14.6052
rtibia 50.9373 0 0
rfoot -27.8571 2.38622 0
rtoes -8.03825 0 0
lowerback 7.27684 1.95282 -1.78508
upperback -3.71983 2.52033 1.2932
thorax -8.14985 1.37012 2.00781
lowerneck -3.74961 -3.76982 -6.33808
upperneck 7.21621 -5.08338 5.86848
head 3.37138 -2.49837 2.86987
lclavicle -9.7054e-15 1.17882e-15 0
lhumerus -26.7001 -1.69502 89.0548
lradius 23.2876 0 0
lwrist -31.9962 0 0
lhand -28.3407 29.8845 0
lfingers 7.12502 0 0
lthumb -1.71495 59.8598 0
rclavicle -9.7054e-15 1.17882e-15 0
rhumerus -31.9476 1.50789 -79.6838
rradius 29.5875 0 0
rwrist 3.75794 0 0
rhand -20.7979 -26.8618 0
rfingers 7.12502 0 0
rthumb 5.59839 -57.0243 0
214
root -2.89867 16.2893 -36.1088 3.6343 0.226538 -2.87681
lfemur -23.7744 6.37977 -8.04108
ltibia 48.5741 0 0
lfoot -23.9606 -0.000954079 0
ltoes -10.3196 0 0
rfemur -23.8246 -7.48122 14.5902
rtibia 50.9517 0 0
rfoot -27.894 2.46368 0
rtoes -7.96573 0 0
lowerback 7.26912 1.95278 -1.80868
upperback -3.71495 2.51572 1.28927
thorax -8.14086 1.36927 2.01802
lowerneck -3.80663 -3.75289 -6.30955
upperneck 7.27515 -5.05946 5.85211
head 3.39241 -2.48572 2.8582
lclavicle -9.0162e-15 1.29842e-15 0
lhumerus -26.7414 -1.63712 89.1207
lradius 23.0084 0 0
lwrist -32.1718 0 0
lhand -28.3713 29.8176 0
lfingers 7.12502 0 0
lthumb -1.74456 59.7934 0
rclavicle -9.0162e-15 1.29842e-15 0
rhumerus -31.8815 1.37334 -79.6161
rradius 29.3516 0 0
rwrist 3.92529 0 0
rhand -20.9936 -26.8759 0
rfingers 7.12502 0 0
rthumb 5.41715 -57.1122 0
215
root -2.89834 16.2873 -36.1086 3.60689 0.12611 -2.86536
lfemur -23.7346 6.29374 -8.01587
ltibia 48.5183 0 0
lfoot -23.9771 -0.09344 0
ltoes -10.4213 0 0
rfemur -23.8088 -7.44845 14.5737
rtibia 50.9644 0 0
rfoot -27.9321 2.54636 0
rtoes -7.8873 0 0
lowerback 7.26057 1.95275 -1.83405
upperback -3.7099 2.51078 1.28495
thorax -8.13126 1.36835 2.0289
lowerneck -3.86605 -3.7362 -6.28058
upperneck 7.33676 -5.03581 5.8362
head 3.41427 -2.47316 2.84645
lclavicle -8.28831e-15 1.4209e-15 0
lhumerus -26.7861 -1.57429 89.1913
lradius 22.7076 0 0
lwrist -32.3616 0 0
lhand -28.4044 29.7452 0
lfingers 7.12502 0 0
lthumb -1.77653 59.7214 0
rclavicle -8.28831e-15 1.4209e-15 0
rhumerus -31.8109 1.22825 -79.543
rradius 29.0973 0 0
rwrist 4.10535 0 0
rhand -21.2046 -26.8914 0
rfingers 7.12502 0 0
rthumb 5.22179 -57.207 0
216
root -2.898 16.2854 -36.1084 3.57803 0.019759 -2.85311
lfemur -23.6917 6.20212 -7.98964
ltibia 48.4571 0 0
lfoot -23.9934 -0.191373 0
ltoes -10.528 0 0
rfemur -23.7912 -7.41277 14.5561
rtibia 50.9755 0 0
rfoot -27.9711 2.63334 0
rtoes -7.80394 0 0
lowerback 7.25139 1.95274 -1.8609
upperback -3.70471 2.50557 1.2803
thorax -8.12118 1.3674 2.04033
lowerneck -3.92765 -3.71944 -6.25098
upperneck 7.40072 -5.01204 5.82042
head 3.43687 -2.4605 2.83452
lclavicle -7.52626e-15 1.54536e-15 0
lhumerus -26.8336 -1.50737 89.2658
lradius 22.389 0 0
lwrist -32.5628 0 0
lhand -28.4396 29.6683 0
lfingers 7.12502 0 0
lthumb -1.81045 59.6449 0
rclavicle -7.52626e-15 1.54536e-15 0
rhumerus -31.7368 1.07443 -79.4654
rradius 28.8277 0 0
rwrist 4.29596 0 0
rhand -21.4281 -26.9078 0
rfingers 7.12502 0 0
rthumb 5.01482 -57.3074 0
217
root -2.89766 16.2834 -36.1081 3.548 -0.0912863 -2.84018
lfemur -23.6463 6.10606 -7.96271
ltibia 48.3914 0 0
lfoot -24.0095 -0.293544 0
ltoes -10.6387 0 0
rfemur -23.7722 -7.37475 14.5374
rtibia 50.9853 0 0
rfoot -28.0107 2.72369 0
rtoes -7.71666 0 0
lowerback 7.24176 1.95274 -1.88892
upperback -3.69939 2.50015 1.27541
thorax -8.11075 1.36641 2.05222
lowerneck -3.99123 -3.70231 -6.22059
upperneck 7.46669 -4.98774 5.80443
head 3.46011 -2.44754 2.82229
lclavicle -6.73461e-15 1.67093e-15 0
lhumerus -26.8834 -1.43723 89.3433
lradius 22.0564 0 0
lwrist -32.773 0 0
lhand -28.4763 29.5877 0
lfingers 7.12502 0 0
lthumb -1.84591 59.5649 0
rclavicle -6.73461e-15 1.67093e-15 0
rhumerus -31.6599 0.913667 -79.3841
rradius 28.5461 0 0
rwrist 4.49495 0 0
rhand -21.6614 -26.9249 0
rfingers 7.12502 0 0
rthumb 4.79877 -57.4122 0
